<?xml version="1.0" encoding="UTF-8"?>
<!DOCTYPE svg PUBLIC "-//W3C//DTD SVG 1.0//EN" "http://www.w3.org/TR/2001/REC-SVG-20010904/DTD/svg10.dtd">
<!-- Creator: CorelDRAW 2018 (64 Bit) -->
<svg xmlns="http://www.w3.org/2000/svg" xml:space="preserve" width="297mm" height="210mm" version="1.0" shape-rendering="geometricPrecision" text-rendering="geometricPrecision" image-rendering="optimizeQuality" fill-rule="evenodd" clip-rule="evenodd"
viewBox="0 0 297 210"
 xmlns:xlink="http://www.w3.org/1999/xlink">
 <g id="Camada_x0020_1">
  <metadata id="CorelCorpID_0Corel-Layer"/>
  <path fill="#4A5050" d="M177.9541 130.586c7.0871,-0.1129 17.547,0.8788 23.2913,-1.6643 5.713,-2.5292 10.1156,-6.7269 12.3882,-12.7326 5.0105,-13.2411 -3.4216,-27.6569 -17.2505,-29.9254 -7.9643,-1.3066 -14.6087,1.8636 -18.7246,5.6815 -5.3327,4.9464 -7.1623,10.5408 -7.1622,18.007 0.0002,8.3234 0,16.6467 0,24.9701 0,2.2251 -0.3535,3.9135 0.8708,5.4616 0.8645,1.0929 2.8414,1.9038 4.6673,0.859 2.8942,-1.6561 1.5958,-5.9296 1.9197,-10.6569zm-0.0162 -7.4621c4.8778,0.0792 9.9245,0.0649 14.805,0.0041 8.4064,-0.1048 14.8566,-6.6764 14.9208,-14.7102 0.1028,-12.8807 -15.4913,-20.1978 -25.314,-10.6663 -2.3003,2.2323 -4.3657,5.7875 -4.423,10.387 -0.0611,4.9017 -0.1142,10.0966 0.0112,14.9854z"/>
  <path fill="#4A5050" d="M42.4282 125.0124c0.16,2.2396 -0.1646,3.2604 1.2617,4.6033 1.5171,1.4284 6.2179,1.9498 6.2082,-3.7606 -0.0034,-1.9994 -0.0001,-3.9991 -0.0001,-5.9985 0,-7.5168 0.7806,-15.0803 -2.2412,-21.2724 -9.1209,-18.69 -36.5143,-15.8821 -41.6695,4.241 -1.7736,6.9229 0.2143,14.0953 3.5979,18.6111 7.3606,9.824 20.7885,12.1386 31.0904,4.8981 0.5563,-0.391 1.2812,-1.0823 1.7526,-1.322zm0.0042 -6.9537c0.2117,-3.5373 0.2635,-11.1695 -0.6401,-14.1404 -2.4169,-7.9465 -10.8228,-12.275 -18.7908,-9.7705 -3.7625,1.1826 -6.5846,3.7929 -8.2747,6.67 -4.0632,6.9159 -1.7104,16.1905 5.3637,20.3049 5.1599,3.0012 12.158,2.6415 17.0206,-1.4197 1.7982,-1.5018 2.0148,-2.4673 5.3213,-1.6443z"/>
  <path fill="#4A5050" d="M218.4058 108.2782c0,9.2613 5.4419,15.8694 10.8747,19.1372 7.2655,4.3703 16.4944,4.1774 23.4063,-0.3753 2.845,-1.8739 5.6371,-4.4868 7.3127,-7.6202 2.3123,-4.324 -3.8716,-8.0322 -6.5605,-3.4824 -2.9706,5.0264 -8.9193,8.0335 -15.2949,6.976 -1.4092,-0.2338 -4.8248,-1.3241 -5.3866,-2.2199 0.6087,-0.6189 1.5372,-1.1612 2.2682,-1.6799l23.075 -16.4139c3.5867,-2.4883 2.742,-4.5632 0.3896,-7.7257 -12.6178,-16.9628 -40.0845,-8.0033 -40.0845,13.4041zm9.2291 6.8482l11.9388 -8.4463c1.4343,-1.0164 11.5566,-8.0377 11.8992,-8.5852 -1.4057,-1.9164 -5.3389,-4.1317 -8.8112,-4.5502 -9.9714,-1.2022 -17.8772,7.2452 -16.7356,16.4595 0.1863,1.5034 0.8842,4.3218 1.7088,5.1222z"/>
  <path fill="#4A5050" d="M128.6122 93.434c5.2112,-0.3764 10.0699,-0.1598 14.2061,2.8063 2.8673,2.0563 5.7705,5.8313 6.1555,10.9633 0.2069,2.7589 0.0326,13.5101 0.0326,17.1169 0,1.925 -0.4786,5.1012 2.5131,6.0597 2.6216,0.8399 4.8804,-1.137 4.9213,-3.5432 0.0968,-5.6845 -0.0037,-11.4678 -0.0032,-17.1638 0.0003,-5.9406 -1.0316,-9.44 -3.6162,-13.5253 -3.338,-5.2759 -9.1895,-9.0841 -15.8021,-9.9802 -2.7574,-0.3736 -5.8516,0.0966 -8.4356,-0.237 -0.1559,-2.3655 0.0342,-4.9717 -0.0204,-7.3714 -0.0458,-2.0114 -1.5753,-3.6913 -3.6519,-3.7227 -2.099,-0.0319 -3.6978,1.6193 -3.7843,3.5814 -0.1063,2.414 -0.0004,5.0966 -0.0004,7.5406l0 37.1064c0,2.5191 -0.4313,4.7916 1.0462,6.3654 1.3145,1.4002 3.7204,1.5356 5.2011,0.1398 1.6245,-1.5314 1.1858,-3.7384 1.1858,-6.3657 0,-1.9954 -0.1588,-28.5463 0.0524,-29.7705z"/>
  <path fill="#4A5050" d="M95.9355 86.087c-5.7043,0.7763 -8.8694,2.3634 -12.3145,5.193 -10.9687,9.0089 -10.471,26.6119 1.4941,35.1542 8.0362,5.7373 18.3781,5.4374 26.2425,-0.3173 1.7219,-1.26 3.0998,-2.698 4.3494,-4.3014 1.1341,-1.4552 3.0359,-3.7705 1.5651,-6.1761 -1.1924,-1.9498 -4.0733,-2.4095 -5.8491,-0.6182 -0.9241,0.9321 -1.4701,2.7409 -4.0129,4.779 -8.4442,6.7687 -19.5427,2.3922 -22.9365,-5.4219 -4.3901,-10.1083 2.7614,-19.6681 11.5284,-20.814 6.513,-0.8514 11.953,2.4637 14.6732,6.9045 2.6454,4.3188 7.1881,1.712 7.1389,-1.5387 -0.0486,-3.2142 -5.4913,-7.935 -7.9476,-9.5094 -3.378,-2.1651 -8.7802,-4.0346 -13.931,-3.3337z"/>
  <path fill="#4A5050" d="M266.7682 74.9389c-3.4916,0.8719 -2.964,3.7654 -2.964,7.2533l0 20.3666c0,3.1383 -0.1988,6.8503 0.371,9.7722 1.563,8.0148 7.0454,14.0771 13.84,16.7397 1.9819,0.7767 6.4965,1.8742 8.9322,1.4028 2.8369,-0.5492 3.7998,-4.204 1.6991,-6.3138 -1.7217,-1.729 -4.0825,-0.3676 -8.104,-2.0866 -4.343,-1.8566 -8.125,-5.7089 -9.0932,-11.2898 -0.4361,-2.5138 -0.2115,-16.4392 -0.2115,-20.0818 0,-3.3944 0,-6.7888 0,-10.1833 0,-1.9451 0.2268,-2.9903 -0.8734,-4.3462 -0.6808,-0.839 -2.0263,-1.6251 -3.5962,-1.2331z"/>
  <path fill="#4A5050" d="M73.4583 86.0785c-9.2463,1.1726 -16.7162,6.8131 -19.3684,16.0024 -1.3621,4.7192 -0.8871,11.4242 -0.8871,16.6597 0,2.2016 -0.2597,6.8285 0.0383,8.7472 0.3535,2.2768 3.1244,3.9854 5.5462,2.5886 2.3352,-1.3468 1.848,-3.8708 1.848,-7.0114 0,-2.9294 0,-5.8589 0,-8.7884 0,-6.3737 -0.4311,-10.359 2.8955,-14.7585 6.077,-8.037 12.2273,-4.6134 14.6492,-7.2609 0.6611,-0.7228 1.2649,-1.9143 0.987,-3.2937 -0.5708,-2.8328 -3.2632,-3.1952 -5.7087,-2.885z"/>
  <path fill="#4A5050" d="M162.6579 86.1061c-1.6414,0.4237 -2.8674,1.5908 -2.9105,3.6141 -0.1285,6.0178 0.0035,13.4075 0.0035,19.5346 0,4.3244 0,8.6488 0,12.9732 0,1.5312 -0.2545,4.9504 0.3292,6.1497 1.7905,3.6789 7.072,2.5072 7.1066,-1.6801l-0.0037 -32.5086c0,-1.5658 0.2522,-4.863 -0.3471,-6.0472 -0.6707,-1.3251 -2.1704,-2.5539 -4.178,-2.0357z"/>
  <path fill="#0182C2" d="M162.1137 67.8703c-9.3931,2.0312 -6.317,15.6465 2.6311,13.9536 3.3937,-0.642 6.4906,-3.8997 5.7305,-8.2173 -0.6169,-3.5049 -4.1056,-6.6566 -8.3616,-5.7363z"/>
 </g>
</svg>
